<svg height='300px' width='300px'  fill="#000000" xmlns="http://www.w3.org/2000/svg" xmlns:xlink="http://www.w3.org/1999/xlink" version="1.1" x="0px" y="0px" viewBox="0 0 64 64" style="enable-background:new 0 0 64 64;" xml:space="preserve"><rect x="26" y="48" width="2" height="2"></rect><rect x="36" y="48" width="2" height="2"></rect><path d="M33.121,55.662c0.164-0.107,0.319-0.229,0.446-0.382l1.001-1.2c0.464-0.557,0.562-1.306,0.259-1.953  C34.501,51.432,33.801,51,33,51h-2c-0.801,0-1.501,0.432-1.827,1.127c-0.304,0.647-0.205,1.396,0.259,1.953c0,0,0,0.001,0.001,0.001  l0.999,1.198c0.128,0.153,0.282,0.276,0.447,0.383C30.604,56.439,29.869,57,29,57h-1v2h1c1.201,0,2.266-0.542,3-1.382  C32.734,58.458,33.799,59,35,59h1v-2h-1C34.131,57,33.396,56.439,33.121,55.662z M31.968,53.999l-0.836-1.003l1.773-0.054  L31.968,53.999z"></path><path d="M39,40c-1.3,0-2.5,0.649-3.24,1.676C34.585,41.246,33.322,41,32,41s-2.585,0.246-3.76,0.676C27.5,40.649,26.3,40,25,40  c-2.206,0-4,1.794-4,4c0,1.119,0.467,2.165,1.258,2.91C21.458,48.434,21,50.163,21,52c0,6.065,4.935,11,11,11s11-4.935,11-11  c0-1.837-0.458-3.566-1.258-5.09C42.533,46.165,43,45.119,43,44C43,41.794,41.206,40,39,40z M25,42c0.531,0,1.005,0.22,1.368,0.569  c-1.141,0.684-2.149,1.563-2.973,2.599C23.151,44.832,23,44.431,23,44C23,42.897,23.897,42,25,42z M40.768,54  c-0.078,0.342-0.178,0.674-0.293,1H38v2h1.478c-1.617,2.41-4.365,4-7.478,4s-5.862-1.59-7.478-4H26v-2h-2.475  c-0.116-0.326-0.215-0.658-0.293-1H27v-2h-4c0-3.525,2.042-6.574,5-8.05V46h2v-2.768c0.328-0.075,0.66-0.135,1-0.173V47h2v-3.941  c0.34,0.038,0.672,0.098,1,0.173V46h2v-2.05c2.958,1.476,5,4.526,5,8.05h-4v2H40.768z M40.605,45.168  c-0.824-1.036-1.832-1.915-2.973-2.599C37.995,42.22,38.469,42,39,42c1.103,0,2,0.897,2,2C41,44.431,40.849,44.832,40.605,45.168z"></path><rect x="50" y="38" width="2" height="2"></rect><rect x="48" y="31" width="2" height="2"></rect><rect x="52" y="31" width="2" height="2"></rect><path d="M59.815,23.393l-0.92-1.841l-1.789,0.895l1.678,3.355l-2.106,2.106C56.057,27.325,55.266,27,54.413,27H47.34  c-0.793,0-1.526,0.292-2.125,0.801l-1.998-1.998l1.678-3.355l-1.789-0.895l-0.92,1.841l-1.237-3.71l-1.896,0.633l2,6  c0.049,0.147,0.132,0.281,0.241,0.391L43.586,29H42v2h1.89c0.029,0.429,0.121,0.857,0.292,1.268l3.537,8.524  C48.284,42.154,49.494,43,50.877,43c0,0,0,0,0.001,0c1.383,0,2.592-0.847,3.156-2.208l3.537-8.524  c0.17-0.411,0.263-0.839,0.292-1.268H60v-2h-1.586l2.293-2.293c0.109-0.109,0.192-0.243,0.241-0.391l2-6l-1.896-0.633L59.815,23.393  z M55.724,31.502l-3.537,8.524C51.934,40.636,51.444,41,50.877,41s-1.058-0.364-1.311-0.974l-3.537-8.524  c-0.251-0.606-0.187-1.312,0.169-1.845C46.362,29.412,46.729,29,47.34,29h7.073c0.611,0,0.978,0.412,1.142,0.657  C55.91,30.189,55.975,30.896,55.724,31.502z"></path><path d="M5.566,35.348c-0.199,0.894,0.015,1.815,0.587,2.529S7.579,39,8.494,39h2.012c0.915,0,1.769-0.409,2.341-1.123  s0.786-1.636,0.588-2.528L12.467,31H16c0.553,0,1-0.447,1-1c0-3.859-3.141-7-7-7H9c-3.859,0-7,3.141-7,7c0,0.553,0.447,1,1,1h3.533  L5.566,35.348z M11.286,36.626C11.096,36.863,10.811,37,10.506,37H8.494c-0.305,0-0.59-0.137-0.78-0.374  c-0.19-0.238-0.262-0.546-0.195-0.844L8.583,31h1.835l1.065,4.783C11.548,36.08,11.477,36.388,11.286,36.626z M4.101,29  C4.565,26.721,6.585,25,9,25h1c2.415,0,4.435,1.721,4.899,4H4.101z"></path><path d="M16.99,34.139c-1.246,0.83-1.99,2.22-1.99,3.718c0,0.941-0.522,1.787-1.364,2.208l-2.083,1.041l0.895,1.789l2.083-1.041  C16.054,41.091,17,39.56,17,37.856c0-0.827,0.411-1.595,1.1-2.054l1.455-0.971l-1.109-1.664L16.99,34.139z"></path><path d="M13.707,9.707l3-3c0.391-0.391,0.391-1.023,0-1.414l-3-3l-1.414,1.414L13.586,5H11c-2.757,0-5,2.243-5,5v4h2v-4  c0-1.654,1.346-3,3-3h2.586l-1.293,1.293L13.707,9.707z"></path><path d="M52.707,10.293l-1.414,1.414l3,3C54.488,14.902,54.744,15,55,15s0.512-0.098,0.707-0.293l3-3l-1.414-1.414L56,11.586V9  c0-2.757-2.243-5-5-5h-4v2h4c1.654,0,3,1.346,3,3v2.586L52.707,10.293z"></path><path d="M57,53c0,1.654-1.346,3-3,3h-2.586l1.293-1.293l-1.414-1.414l-3,3c-0.391,0.391-0.391,1.023,0,1.414l3,3l1.414-1.414  L51.414,58H54c2.757,0,5-2.243,5-5v-4h-2V53z"></path><path d="M8,54v-2.586l1.293,1.293l1.414-1.414l-3-3c-0.391-0.391-1.023-0.391-1.414,0l-3,3l1.414,1.414L6,51.414V54  c0,2.757,2.243,5,5,5h4v-2h-4C9.346,57,8,55.654,8,54z"></path><path d="M21.193,13.557l1.793,0.887c0.724-1.464,1.095-2.957,1.104-4.433c0.025-2.43-0.901-4.352-1.564-5.661  c0.553,0.312,1.231,0.779,1.886,1.385c0.995,0.92,1.796,2.078,2.401,3.429c-0.026,0.066-0.06,0.129-0.085,0.195l-1.66,4.28  l1.865,0.723l1.663-4.289c0.335-0.888,0.757-1.744,1.254-2.545c0.682-1.098,1.495-2.087,2.432-2.959  c-0.144,0.783-0.236,1.574-0.279,2.368c-0.041,0.639-0.044,1.29-0.011,1.929c0.084,1.862,0.443,3.702,1.065,5.468l1.887-0.666  c-0.487-1.38-0.782-2.811-0.902-4.266c1.186-0.644,2.407-1.212,3.673-1.666c-0.276,0.603-0.52,1.285-0.69,2.047  c-0.324,1.458-0.324,2.991,0.001,4.437l1.951-0.438c-0.182-0.81-0.329-2.084,0-3.562c0.374-1.669,1.176-2.861,1.783-3.567  c0.283-0.33,0.301-0.801,0.072-1.171c-0.229-0.372-0.692-0.544-1.113-0.441c-1.971,0.491-3.886,1.206-5.719,2.118  C34,7.122,33.997,7.088,33.999,7.054c0.086-1.611,0.403-3.198,0.943-4.719c0.143-0.401,0.016-0.849-0.316-1.114  c-0.331-0.268-0.795-0.295-1.156-0.068c-2.188,1.368-3.978,3.158-5.319,5.32c-0.092,0.148-0.167,0.306-0.254,0.457  c-0.6-1.002-1.303-1.902-2.127-2.664C25.731,4.23,21.985,0.788,20.4,2.275c-0.79,0.752-0.28,1.756,0.26,2.819  c0.612,1.204,1.451,2.854,1.43,4.899C22.083,11.169,21.781,12.367,21.193,13.557z"></path></svg>